<svg xmlns="http://www.w3.org/2000/svg" width="1440" height="720" viewBox="0 0 1440 720" fill="none">
  <defs>
    <linearGradient id="bg" x1="100" y1="20" x2="1340" y2="700" gradientUnits="userSpaceOnUse">
      <stop stop-color="#10151D"/><stop offset="1" stop-color="#080A0E"/>
    </linearGradient>
    <radialGradient id="glow" cx="0" cy="0" r="1" gradientTransform="translate(1060 315) rotate(145) scale(475 330)" gradientUnits="userSpaceOnUse">
      <stop stop-color="#42D977" stop-opacity=".24"/><stop offset="1" stop-color="#42D977" stop-opacity="0"/>
    </radialGradient>
    <filter id="shadow" x="-80" y="-80" width="160%" height="180%"><feDropShadow dx="0" dy="30" stdDeviation="35" flood-color="#000" flood-opacity=".45"/></filter>
  </defs>
  <rect width="1440" height="720" rx="28" fill="url(#bg)"/>
  <rect x="1" y="1" width="1438" height="718" rx="27" stroke="#28303D" stroke-opacity=".9"/>
  <path d="M0 554C302 473 396 709 708 609C1006 514 1130 591 1440 464V720H0V554Z" fill="#70E494" fill-opacity=".025"/>
  <rect width="1440" height="720" rx="28" fill="url(#glow)"/>

  <g transform="translate(92 92)">
    <g>
      <rect width="44" height="44" rx="12" fill="#151B24" stroke="#34404E"/>
      <rect x="9" y="9" width="7" height="7" rx="2" fill="#70E494"/><rect x="19" y="9" width="7" height="7" rx="2" fill="#277F43"/><rect x="29" y="9" width="7" height="7" rx="2" fill="#1A222C"/>
      <rect x="9" y="19" width="7" height="7" rx="2" fill="#245B35"/><rect x="19" y="19" width="7" height="7" rx="2" fill="#70E494"/><rect x="29" y="19" width="7" height="7" rx="2" fill="#2DA451"/>
      <rect x="9" y="29" width="7" height="7" rx="2" fill="#1A222C"/><rect x="19" y="29" width="7" height="7" rx="2" fill="#266A3A"/><rect x="29" y="29" width="7" height="7" rx="2" fill="#70E494"/>
    </g>
    <text x="58" y="19" fill="#F3F7FB" font-family="-apple-system,BlinkMacSystemFont,Segoe UI,sans-serif" font-size="18" font-weight="700">Contribution Canvas</text>
    <text x="58" y="38" fill="#7C8999" font-family="-apple-system,BlinkMacSystemFont,Segoe UI,sans-serif" font-size="10" font-weight="600" letter-spacing="1.3">LOCAL-FIRST GRAPH ART</text>
  </g>

  <g transform="translate(92 220)">
    <text fill="#70E494" font-family="-apple-system,BlinkMacSystemFont,Segoe UI,sans-serif" font-size="12" font-weight="800" letter-spacing="2">OPEN SOURCE · ZERO RUNTIME DEPENDENCIES</text>
    <text y="70" fill="#F5F8FB" font-family="-apple-system,BlinkMacSystemFont,Segoe UI,sans-serif" font-size="68" font-weight="760" letter-spacing="-4">Turn a year into</text>
    <text y="139" fill="#70E494" font-family="-apple-system,BlinkMacSystemFont,Segoe UI,sans-serif" font-size="68" font-weight="760" letter-spacing="-4">your canvas.</text>
    <text y="191" fill="#AEB8C5" font-family="-apple-system,BlinkMacSystemFont,Segoe UI,sans-serif" font-size="17">Brush, erase, place pixel text, dry-run and push once—locally.</text>
    <g transform="translate(0 235)">
      <rect width="166" height="48" rx="11" fill="#70E494"/>
      <text x="83" y="30" text-anchor="middle" fill="#07110A" font-family="-apple-system,BlinkMacSystemFont,Segoe UI,sans-serif" font-size="13" font-weight="750">Open the canvas</text>
      <rect x="178" width="170" height="48" rx="11" fill="#151A22" stroke="#2D3744"/>
      <text x="263" y="30" text-anchor="middle" fill="#C4CDD8" font-family="-apple-system,BlinkMacSystemFont,Segoe UI,sans-serif" font-size="13" font-weight="700">Run locally</text>
    </g>
  </g>

  <g transform="translate(765 116)" filter="url(#shadow)">
    <rect width="585" height="458" rx="20" fill="#10151C" stroke="#35404E"/>
    <path d="M0 58H585" stroke="#29323E"/>
    <circle cx="24" cy="29" r="4" fill="#45505E"/><circle cx="38" cy="29" r="4" fill="#45505E"/><circle cx="52" cy="29" r="4" fill="#45505E"/>
    <text x="545" y="33" text-anchor="end" fill="#768394" font-family="ui-monospace,SFMono-Regular,monospace" font-size="10">secure local mode</text>
    <g transform="translate(35 101)">
      <text fill="#7C8999" font-family="-apple-system,BlinkMacSystemFont,Segoe UI,sans-serif" font-size="10">Jan</text>
      <text x="98" fill="#7C8999" font-family="-apple-system,BlinkMacSystemFont,Segoe UI,sans-serif" font-size="10">Mar</text>
      <text x="205" fill="#7C8999" font-family="-apple-system,BlinkMacSystemFont,Segoe UI,sans-serif" font-size="10">May</text>
      <text x="318" fill="#7C8999" font-family="-apple-system,BlinkMacSystemFont,Segoe UI,sans-serif" font-size="10">Jul</text>
      <text x="428" fill="#7C8999" font-family="-apple-system,BlinkMacSystemFont,Segoe UI,sans-serif" font-size="10">Sep</text>
      <g transform="translate(0 22)">
<rect x="0" y="0" width="11" height="11" rx="3" fill="#17462A"/>
<rect x="0" y="16" width="11" height="11" rx="3" fill="#1A2029"/>
<rect x="0" y="32" width="11" height="11" rx="3" fill="#1A2029"/>
<rect x="0" y="48" width="11" height="11" rx="3" fill="#1A2029"/>
<rect x="0" y="64" width="11" height="11" rx="3" fill="#1A2029"/>
<rect x="0" y="80" width="11" height="11" rx="3" fill="#1A2029"/>
<rect x="0" y="96" width="11" height="11" rx="3" fill="#1A2029"/>
<rect x="16" y="0" width="11" height="11" rx="3" fill="#1A2029"/>
<rect x="16" y="16" width="11" height="11" rx="3" fill="#1A2029"/>
<rect x="16" y="32" width="11" height="11" rx="3" fill="#1A2029"/>
<rect x="16" y="48" width="11" height="11" rx="3" fill="#1A2029"/>
<rect x="16" y="64" width="11" height="11" rx="3" fill="#1A2029"/>
<rect x="16" y="80" width="11" height="11" rx="3" fill="#1A2029"/>
<rect x="16" y="96" width="11" height="11" rx="3" fill="#1A2029"/>
<rect x="32" y="0" width="11" height="11" rx="3" fill="#70E494"/>
<rect x="32" y="16" width="11" height="11" rx="3" fill="#2DA451"/>
<rect x="32" y="32" width="11" height="11" rx="3" fill="#70E494"/>
<rect x="32" y="48" width="11" height="11" rx="3" fill="#70E494"/>
<rect x="32" y="64" width="11" height="11" rx="3" fill="#2DA451"/>
<rect x="32" y="80" width="11" height="11" rx="3" fill="#70E494"/>
<rect x="32" y="96" width="11" height="11" rx="3" fill="#70E494"/>
<rect x="48" y="0" width="11" height="11" rx="3" fill="#1A2029"/>
<rect x="48" y="16" width="11" height="11" rx="3" fill="#1A2029"/>
<rect x="48" y="32" width="11" height="11" rx="3" fill="#1A2029"/>
<rect x="48" y="48" width="11" height="11" rx="3" fill="#2DA451"/>
<rect x="48" y="64" width="11" height="11" rx="3" fill="#1A2029"/>
<rect x="48" y="80" width="11" height="11" rx="3" fill="#1A2029"/>
<rect x="48" y="96" width="11" height="11" rx="3" fill="#1A2029"/>
<rect x="64" y="0" width="11" height="11" rx="3" fill="#1A2029"/>
<rect x="64" y="16" width="11" height="11" rx="3" fill="#1A2029"/>
<rect x="64" y="32" width="11" height="11" rx="3" fill="#1A2029"/>
<rect x="64" y="48" width="11" height="11" rx="3" fill="#70E494"/>
<rect x="64" y="64" width="11" height="11" rx="3" fill="#1A2029"/>
<rect x="64" y="80" width="11" height="11" rx="3" fill="#1A2029"/>
<rect x="64" y="96" width="11" height="11" rx="3" fill="#1A2029"/>
<rect x="80" y="0" width="11" height="11" rx="3" fill="#70E494"/>
<rect x="80" y="16" width="11" height="11" rx="3" fill="#2DA451"/>
<rect x="80" y="32" width="11" height="11" rx="3" fill="#70E494"/>
<rect x="80" y="48" width="11" height="11" rx="3" fill="#70E494"/>
<rect x="80" y="64" width="11" height="11" rx="3" fill="#2DA451"/>
<rect x="80" y="80" width="11" height="11" rx="3" fill="#70E494"/>
<rect x="80" y="96" width="11" height="11" rx="3" fill="#70E494"/>
<rect x="96" y="0" width="11" height="11" rx="3" fill="#1A2029"/>
<rect x="96" y="16" width="11" height="11" rx="3" fill="#1A2029"/>
<rect x="96" y="32" width="11" height="11" rx="3" fill="#1A2029"/>
<rect x="96" y="48" width="11" height="11" rx="3" fill="#1A2029"/>
<rect x="96" y="64" width="11" height="11" rx="3" fill="#1A2029"/>
<rect x="96" y="80" width="11" height="11" rx="3" fill="#1A2029"/>
<rect x="96" y="96" width="11" height="11" rx="3" fill="#1A2029"/>
<rect x="112" y="0" width="11" height="11" rx="3" fill="#1A2029"/>
<rect x="112" y="16" width="11" height="11" rx="3" fill="#1A2029"/>
<rect x="112" y="32" width="11" height="11" rx="3" fill="#1A2029"/>
<rect x="112" y="48" width="11" height="11" rx="3" fill="#1A2029"/>
<rect x="112" y="64" width="11" height="11" rx="3" fill="#1A2029"/>
<rect x="112" y="80" width="11" height="11" rx="3" fill="#1A2029"/>
<rect x="112" y="96" width="11" height="11" rx="3" fill="#1A2029"/>
<rect x="128" y="0" width="11" height="11" rx="3" fill="#70E494"/>
<rect x="128" y="16" width="11" height="11" rx="3" fill="#2DA451"/>
<rect x="128" y="32" width="11" height="11" rx="3" fill="#70E494"/>
<rect x="128" y="48" width="11" height="11" rx="3" fill="#70E494"/>
<rect x="128" y="64" width="11" height="11" rx="3" fill="#2DA451"/>
<rect x="128" y="80" width="11" height="11" rx="3" fill="#70E494"/>
<rect x="128" y="96" width="11" height="11" rx="3" fill="#70E494"/>
<rect x="144" y="0" width="11" height="11" rx="3" fill="#2DA451"/>
<rect x="144" y="16" width="11" height="11" rx="3" fill="#1A2029"/>
<rect x="144" y="32" width="11" height="11" rx="3" fill="#1A2029"/>
<rect x="144" y="48" width="11" height="11" rx="3" fill="#2DA451"/>
<rect x="144" y="64" width="11" height="11" rx="3" fill="#1A2029"/>
<rect x="144" y="80" width="11" height="11" rx="3" fill="#1A2029"/>
<rect x="144" y="96" width="11" height="11" rx="3" fill="#2DA451"/>
<rect x="160" y="0" width="11" height="11" rx="3" fill="#70E494"/>
<rect x="160" y="16" width="11" height="11" rx="3" fill="#1A2029"/>
<rect x="160" y="32" width="11" height="11" rx="3" fill="#1A2029"/>
<rect x="160" y="48" width="11" height="11" rx="3" fill="#70E494"/>
<rect x="160" y="64" width="11" height="11" rx="3" fill="#1A2029"/>
<rect x="160" y="80" width="11" height="11" rx="3" fill="#1A2029"/>
<rect x="160" y="96" width="11" height="11" rx="3" fill="#70E494"/>
<rect x="176" y="0" width="11" height="11" rx="3" fill="#1A2029"/>
<rect x="176" y="16" width="11" height="11" rx="3" fill="#1A2029"/>
<rect x="176" y="32" width="11" height="11" rx="3" fill="#1A2029"/>
<rect x="176" y="48" width="11" height="11" rx="3" fill="#1A2029"/>
<rect x="176" y="64" width="11" height="11" rx="3" fill="#1A2029"/>
<rect x="176" y="80" width="11" height="11" rx="3" fill="#1A2029"/>
<rect x="176" y="96" width="11" height="11" rx="3" fill="#17462A"/>
<rect x="192" y="0" width="11" height="11" rx="3" fill="#1A2029"/>
<rect x="192" y="16" width="11" height="11" rx="3" fill="#1A2029"/>
<rect x="192" y="32" width="11" height="11" rx="3" fill="#1A2029"/>
<rect x="192" y="48" width="11" height="11" rx="3" fill="#1A2029"/>
<rect x="192" y="64" width="11" height="11" rx="3" fill="#1A2029"/>
<rect x="192" y="80" width="11" height="11" rx="3" fill="#1A2029"/>
<rect x="192" y="96" width="11" height="11" rx="3" fill="#1A2029"/>
<rect x="208" y="0" width="11" height="11" rx="3" fill="#70E494"/>
<rect x="208" y="16" width="11" height="11" rx="3" fill="#70E494"/>
<rect x="208" y="32" width="11" height="11" rx="3" fill="#2DA451"/>
<rect x="208" y="48" width="11" height="11" rx="3" fill="#70E494"/>
<rect x="208" y="64" width="11" height="11" rx="3" fill="#70E494"/>
<rect x="208" y="80" width="11" height="11" rx="3" fill="#2DA451"/>
<rect x="208" y="96" width="11" height="11" rx="3" fill="#70E494"/>
<rect x="224" y="0" width="11" height="11" rx="3" fill="#1A2029"/>
<rect x="224" y="16" width="11" height="11" rx="3" fill="#1A2029"/>
<rect x="224" y="32" width="11" height="11" rx="3" fill="#1A2029"/>
<rect x="224" y="48" width="11" height="11" rx="3" fill="#1A2029"/>
<rect x="224" y="64" width="11" height="11" rx="3" fill="#1A2029"/>
<rect x="224" y="80" width="11" height="11" rx="3" fill="#1A2029"/>
<rect x="224" y="96" width="11" height="11" rx="3" fill="#70E494"/>
<rect x="240" y="0" width="11" height="11" rx="3" fill="#1A2029"/>
<rect x="240" y="16" width="11" height="11" rx="3" fill="#1A2029"/>
<rect x="240" y="32" width="11" height="11" rx="3" fill="#1A2029"/>
<rect x="240" y="48" width="11" height="11" rx="3" fill="#1A2029"/>
<rect x="240" y="64" width="11" height="11" rx="3" fill="#17462A"/>
<rect x="240" y="80" width="11" height="11" rx="3" fill="#1A2029"/>
<rect x="240" y="96" width="11" height="11" rx="3" fill="#2DA451"/>
<rect x="256" y="0" width="11" height="11" rx="3" fill="#1A2029"/>
<rect x="256" y="16" width="11" height="11" rx="3" fill="#1A2029"/>
<rect x="256" y="32" width="11" height="11" rx="3" fill="#1A2029"/>
<rect x="256" y="48" width="11" height="11" rx="3" fill="#1A2029"/>
<rect x="256" y="64" width="11" height="11" rx="3" fill="#1A2029"/>
<rect x="256" y="80" width="11" height="11" rx="3" fill="#1A2029"/>
<rect x="256" y="96" width="11" height="11" rx="3" fill="#1A2029"/>
<rect x="272" y="0" width="11" height="11" rx="3" fill="#1A2029"/>
<rect x="272" y="16" width="11" height="11" rx="3" fill="#1A2029"/>
<rect x="272" y="32" width="11" height="11" rx="3" fill="#1A2029"/>
<rect x="272" y="48" width="11" height="11" rx="3" fill="#17462A"/>
<rect x="272" y="64" width="11" height="11" rx="3" fill="#1A2029"/>
<rect x="272" y="80" width="11" height="11" rx="3" fill="#1A2029"/>
<rect x="272" y="96" width="11" height="11" rx="3" fill="#1A2029"/>
<rect x="288" y="0" width="11" height="11" rx="3" fill="#2DA451"/>
<rect x="288" y="16" width="11" height="11" rx="3" fill="#70E494"/>
<rect x="288" y="32" width="11" height="11" rx="3" fill="#70E494"/>
<rect x="288" y="48" width="11" height="11" rx="3" fill="#2DA451"/>
<rect x="288" y="64" width="11" height="11" rx="3" fill="#70E494"/>
<rect x="288" y="80" width="11" height="11" rx="3" fill="#70E494"/>
<rect x="288" y="96" width="11" height="11" rx="3" fill="#2DA451"/>
<rect x="304" y="0" width="11" height="11" rx="3" fill="#1A2029"/>
<rect x="304" y="16" width="11" height="11" rx="3" fill="#1A2029"/>
<rect x="304" y="32" width="11" height="11" rx="3" fill="#17462A"/>
<rect x="304" y="48" width="11" height="11" rx="3" fill="#1A2029"/>
<rect x="304" y="64" width="11" height="11" rx="3" fill="#1A2029"/>
<rect x="304" y="80" width="11" height="11" rx="3" fill="#1A2029"/>
<rect x="304" y="96" width="11" height="11" rx="3" fill="#70E494"/>
<rect x="320" y="0" width="11" height="11" rx="3" fill="#1A2029"/>
<rect x="320" y="16" width="11" height="11" rx="3" fill="#1A2029"/>
<rect x="320" y="32" width="11" height="11" rx="3" fill="#1A2029"/>
<rect x="320" y="48" width="11" height="11" rx="3" fill="#1A2029"/>
<rect x="320" y="64" width="11" height="11" rx="3" fill="#1A2029"/>
<rect x="320" y="80" width="11" height="11" rx="3" fill="#1A2029"/>
<rect x="320" y="96" width="11" height="11" rx="3" fill="#70E494"/>
<rect x="336" y="0" width="11" height="11" rx="3" fill="#1A2029"/>
<rect x="336" y="16" width="11" height="11" rx="3" fill="#17462A"/>
<rect x="336" y="32" width="11" height="11" rx="3" fill="#1A2029"/>
<rect x="336" y="48" width="11" height="11" rx="3" fill="#1A2029"/>
<rect x="336" y="64" width="11" height="11" rx="3" fill="#1A2029"/>
<rect x="336" y="80" width="11" height="11" rx="3" fill="#1A2029"/>
<rect x="336" y="96" width="11" height="11" rx="3" fill="#1A2029"/>
<rect x="352" y="0" width="11" height="11" rx="3" fill="#1A2029"/>
<rect x="352" y="16" width="11" height="11" rx="3" fill="#1A2029"/>
<rect x="352" y="32" width="11" height="11" rx="3" fill="#1A2029"/>
<rect x="352" y="48" width="11" height="11" rx="3" fill="#1A2029"/>
<rect x="352" y="64" width="11" height="11" rx="3" fill="#1A2029"/>
<rect x="352" y="80" width="11" height="11" rx="3" fill="#1A2029"/>
<rect x="352" y="96" width="11" height="11" rx="3" fill="#1A2029"/>
<rect x="368" y="0" width="11" height="11" rx="3" fill="#70E494"/>
<rect x="368" y="16" width="11" height="11" rx="3" fill="#2DA451"/>
<rect x="368" y="32" width="11" height="11" rx="3" fill="#70E494"/>
<rect x="368" y="48" width="11" height="11" rx="3" fill="#70E494"/>
<rect x="368" y="64" width="11" height="11" rx="3" fill="#2DA451"/>
<rect x="368" y="80" width="11" height="11" rx="3" fill="#70E494"/>
<rect x="368" y="96" width="11" height="11" rx="3" fill="#70E494"/>
<rect x="384" y="0" width="11" height="11" rx="3" fill="#2DA451"/>
<rect x="384" y="16" width="11" height="11" rx="3" fill="#1A2029"/>
<rect x="384" y="32" width="11" height="11" rx="3" fill="#1A2029"/>
<rect x="384" y="48" width="11" height="11" rx="3" fill="#2DA451"/>
<rect x="384" y="64" width="11" height="11" rx="3" fill="#1A2029"/>
<rect x="384" y="80" width="11" height="11" rx="3" fill="#1A2029"/>
<rect x="384" y="96" width="11" height="11" rx="3" fill="#2DA451"/>
<rect x="400" y="0" width="11" height="11" rx="3" fill="#70E494"/>
<rect x="400" y="16" width="11" height="11" rx="3" fill="#1A2029"/>
<rect x="400" y="32" width="11" height="11" rx="3" fill="#1A2029"/>
<rect x="400" y="48" width="11" height="11" rx="3" fill="#70E494"/>
<rect x="400" y="64" width="11" height="11" rx="3" fill="#1A2029"/>
<rect x="400" y="80" width="11" height="11" rx="3" fill="#1A2029"/>
<rect x="400" y="96" width="11" height="11" rx="3" fill="#70E494"/>
<rect x="416" y="0" width="11" height="11" rx="3" fill="#1A2029"/>
<rect x="416" y="16" width="11" height="11" rx="3" fill="#1A2029"/>
<rect x="416" y="32" width="11" height="11" rx="3" fill="#1A2029"/>
<rect x="416" y="48" width="11" height="11" rx="3" fill="#1A2029"/>
<rect x="416" y="64" width="11" height="11" rx="3" fill="#1A2029"/>
<rect x="416" y="80" width="11" height="11" rx="3" fill="#1A2029"/>
<rect x="416" y="96" width="11" height="11" rx="3" fill="#1A2029"/>
<rect x="432" y="0" width="11" height="11" rx="3" fill="#1A2029"/>
<rect x="432" y="16" width="11" height="11" rx="3" fill="#1A2029"/>
<rect x="432" y="32" width="11" height="11" rx="3" fill="#1A2029"/>
<rect x="432" y="48" width="11" height="11" rx="3" fill="#1A2029"/>
<rect x="432" y="64" width="11" height="11" rx="3" fill="#1A2029"/>
<rect x="432" y="80" width="11" height="11" rx="3" fill="#1A2029"/>
<rect x="432" y="96" width="11" height="11" rx="3" fill="#1A2029"/>
<rect x="448" y="0" width="11" height="11" rx="3" fill="#1A2029"/>
<rect x="448" y="16" width="11" height="11" rx="3" fill="#1A2029"/>
<rect x="448" y="32" width="11" height="11" rx="3" fill="#1A2029"/>
<rect x="448" y="48" width="11" height="11" rx="3" fill="#1A2029"/>
<rect x="448" y="64" width="11" height="11" rx="3" fill="#1A2029"/>
<rect x="448" y="80" width="11" height="11" rx="3" fill="#1A2029"/>
<rect x="448" y="96" width="11" height="11" rx="3" fill="#1A2029"/>
<rect x="464" y="0" width="11" height="11" rx="3" fill="#1A2029"/>
<rect x="464" y="16" width="11" height="11" rx="3" fill="#1A2029"/>
<rect x="464" y="32" width="11" height="11" rx="3" fill="#1A2029"/>
<rect x="464" y="48" width="11" height="11" rx="3" fill="#1A2029"/>
<rect x="464" y="64" width="11" height="11" rx="3" fill="#1A2029"/>
<rect x="464" y="80" width="11" height="11" rx="3" fill="#1A2029"/>
<rect x="464" y="96" width="11" height="11" rx="3" fill="#1A2029"/>
      </g>
    </g>
    <g transform="translate(35 288)">
      <rect width="515" height="1" fill="#29323E"/>
      <text y="34" fill="#7C8999" font-family="-apple-system,BlinkMacSystemFont,Segoe UI,sans-serif" font-size="10">Generated commits</text>
      <text y="77" fill="#F5F8FB" font-family="-apple-system,BlinkMacSystemFont,Segoe UI,sans-serif" font-size="36" font-weight="750">184</text>
      <text x="188" y="34" fill="#7C8999" font-family="-apple-system,BlinkMacSystemFont,Segoe UI,sans-serif" font-size="10">Active dates</text>
      <text x="188" y="77" fill="#F5F8FB" font-family="-apple-system,BlinkMacSystemFont,Segoe UI,sans-serif" font-size="36" font-weight="750">46</text>
      <rect x="374" y="33" width="141" height="48" rx="10" fill="#70E494"/>
      <text x="444.5" y="62" text-anchor="middle" fill="#07110A" font-family="-apple-system,BlinkMacSystemFont,Segoe UI,sans-serif" font-size="12" font-weight="750">Dry-run ready</text>
    </g>
  </g>

  <g transform="translate(1145 86)" filter="url(#shadow)">
    <rect width="194" height="58" rx="13" fill="#151B23" stroke="#35404E"/>
    <circle cx="30" cy="29" r="15" fill="#163F27"/><path d="m24 29 4 4 8-9" stroke="#70E494" stroke-width="2.3" stroke-linecap="round" stroke-linejoin="round"/>
    <text x="55" y="25" fill="#F5F8FB" font-family="-apple-system,BlinkMacSystemFont,Segoe UI,sans-serif" font-size="11" font-weight="700">Push verified</text>
    <text x="55" y="41" fill="#7C8999" font-family="-apple-system,BlinkMacSystemFont,Segoe UI,sans-serif" font-size="9">One fast-forward push</text>
  </g>
</svg>
